<svg width="208" height="40" viewBox="0 0 208 40" fill="none" xmlns="http://www.w3.org/2000/svg">
<rect width="40" height="40" rx="10" fill="#06A055"/>
<path d="M16 13C16 16.0597 17.8311 18.7081 20.4999 20C23.1689 18.7081 25 16.0597 25 13C25 9.94033 23.1689 7.29186 20.4999 6C17.8311 7.29186 16 9.94033 16 13Z" fill="white"/>
<path d="M7.79214 30.9931C10.4246 33.828 14.212 34.657 17.5225 33.4858C18.6101 29.9205 17.8403 25.8417 15.208 23.0068C12.5755 20.172 8.78813 19.343 5.4775 20.5142C4.3899 24.0794 5.1597 28.1582 7.79214 30.9931Z" fill="white"/>
<path d="M24.7921 23.0069C22.1597 25.8419 21.3899 29.9206 22.4775 33.4858C25.7881 34.657 29.5755 33.828 32.208 30.9932C34.8403 28.1583 35.6101 24.0795 34.5225 20.5142C31.212 19.343 27.4246 20.172 24.7921 23.0069Z" fill="white"/>
<path d="M53.2892 6V30.6831H48V6H53.2892ZM58.931 6L63.515 30.6831H57.8732L53.2892 6H58.931ZM68.099 6H73.7409L69.1569 30.6831H63.515L68.099 6ZM73.7409 6H79.0302V30.6831H73.7409V6Z" fill="white"/>
<path d="M85.8536 11.29V30.6839H80.917V11.29H85.8536Z" fill="white"/>
<path d="M85.8536 6H80.917V9.17353H85.8536V6Z" fill="#06A055"/>
<path d="M97.9965 15.6969C94.8583 15.6969 92.6721 17.2484 92.6721 20.1046V30.683H87.7354V11.2892H92.6721V13.4754C93.8357 11.8181 95.8103 10.9365 99.0543 10.9365C104.414 10.9365 108.258 14.3922 108.258 20.1046V30.683H103.321V20.1046C103.321 17.3894 101.241 15.6969 97.9965 15.6969Z" fill="white"/>
<path d="M109.633 20.9861C109.633 14.4275 112.983 10.9366 119.788 10.9366C123.279 10.9366 125.289 11.8534 126.417 13.546V6H131.354V30.6831H126.417V28.3911C125.254 30.1189 123.244 31.0357 119.788 31.0357C112.736 31.0357 109.633 27.2627 109.633 20.9861ZM120.493 26.2754C124.231 26.2754 126.417 24.4418 126.417 20.9861C126.417 17.6716 124.337 15.6969 120.493 15.6969C116.756 15.6969 114.569 17.5305 114.569 20.9861C114.569 24.3007 116.65 26.2754 120.493 26.2754Z" fill="white"/>
<path d="M138.191 6V30.6831H133.254V6H138.191Z" fill="white"/>
<path d="M139.657 20.9861C139.657 14.4274 143.712 10.9365 150.518 10.9365C157.57 10.9365 161.378 14.7095 161.378 20.9861V21.7266H144.629C144.911 24.5828 146.956 26.2753 150.518 26.2753C153.092 26.2753 154.925 25.4291 155.807 23.7365H161.132C160.074 28.4968 156.265 31.0356 150.518 31.0356C143.465 31.0356 139.657 27.2627 139.657 20.9861ZM155.772 18.1299C154.855 16.5784 153.092 15.6969 150.518 15.6969C148.014 15.6969 146.181 16.5431 145.264 18.1299H155.772Z" fill="white"/>
<path d="M162.625 20.9861C162.625 14.4274 165.975 10.9365 172.78 10.9365C176.271 10.9365 178.281 11.8533 179.41 13.5459V11.2892H184.346V30.683H179.41V28.391C178.246 30.1188 176.236 31.0356 172.78 31.0356C165.728 31.0356 162.625 27.2627 162.625 20.9861ZM173.486 26.2753C177.223 26.2753 179.41 24.4417 179.41 20.9861C179.41 17.6715 177.329 15.6969 173.486 15.6969C169.748 15.6969 167.562 17.5305 167.562 20.9861C167.562 24.3007 169.642 26.2753 173.486 26.2753Z" fill="white"/>
<path d="M191.216 28.391V37.7353H186.279V11.2892H191.216V13.5459C192.344 11.8533 194.354 10.9365 197.845 10.9365C204.651 10.9365 208 14.4274 208 20.9861C208 27.2627 204.897 31.0356 197.845 31.0356C194.389 31.0356 192.38 30.1188 191.216 28.391ZM197.14 26.2753C200.983 26.2753 203.064 24.3007 203.064 20.9861C203.064 17.5305 200.878 15.6969 197.14 15.6969C193.296 15.6969 191.216 17.6715 191.216 20.9861C191.216 24.4417 193.402 26.2753 197.14 26.2753Z" fill="white"/>
</svg>
